<svg xmlns="http://www.w3.org/2000/svg" xmlns:xlink="http://www.w3.org/1999/xlink" width="500" zoomAndPan="magnify" viewBox="0 0 375 374.999991" height="500" preserveAspectRatio="xMidYMid meet" version="1.0"><defs><clipPath id="c0db2c31de"><path d="M 115.269531 90.03125 L 312.75 90.03125 L 312.75 328.023438 L 115.269531 328.023438 Z M 115.269531 90.03125 " clip-rule="nonzero"/></clipPath><clipPath id="7748100320"><path d="M 0.269531 0.03125 L 197.75 0.03125 L 197.75 238.023438 L 0.269531 238.023438 Z M 0.269531 0.03125 " clip-rule="nonzero"/></clipPath><clipPath id="16923b56e0"><rect x="0" width="198" y="0" height="239"/></clipPath><clipPath id="619428ba4d"><path d="M 61 51 L 274 51 L 274 302 L 61 302 Z M 61 51 " clip-rule="nonzero"/></clipPath><clipPath id="6aa711e1e0"><path d="M 61.285156 63.992188 L 258.34375 51.078125 L 273.910156 288.5625 L 76.847656 301.476562 Z M 61.285156 63.992188 " clip-rule="nonzero"/></clipPath><clipPath id="4dc8f3a748"><path d="M 0.199219 0 L 213 0 L 213 250.679688 L 0.199219 250.679688 Z M 0.199219 0 " clip-rule="nonzero"/></clipPath><clipPath id="524b839fa1"><path d="M 0.285156 12.992188 L 197.34375 0.078125 L 212.910156 237.5625 L 15.847656 250.476562 Z M 0.285156 12.992188 " clip-rule="nonzero"/></clipPath><clipPath id="7022b7a0de"><rect x="0" width="213" y="0" height="251"/></clipPath><clipPath id="c2fc581ab7"><path d="M 58.1875 37.5 L 316.9375 37.5 L 316.9375 337.5 L 58.1875 337.5 Z M 58.1875 37.5 " clip-rule="nonzero"/></clipPath><clipPath id="84cb9958e8"><path d="M 68.644531 178.472656 L 337.5 178.472656 L 337.5 318.9375 L 68.644531 318.9375 Z M 68.644531 178.472656 " clip-rule="nonzero"/></clipPath><clipPath id="083debf344"><path d="M 335.527344 179.066406 L 333.304688 178.621094 C 332.828125 178.523438 332.332031 178.597656 331.90625 178.824219 L 284.953125 203.722656 C 284.273438 204.085938 283.460938 204.816406 283.035156 205.457031 L 282.664062 206.011719 C 282.449219 206.332031 282.492188 206.761719 282.765625 207.035156 L 283.773438 208.042969 C 284.523438 208.792969 286.15625 210.023438 287.082031 210.539062 L 298.238281 216.734375 C 298.4375 216.847656 298.558594 217.058594 298.558594 217.285156 L 298.558594 217.65625 C 298.558594 218.121094 298.386719 218.605469 298.089844 218.964844 L 291.300781 227.179688 C 288.246094 230.882812 280.234375 239.398438 276.730469 242.679688 L 269.164062 249.757812 C 265.796875 252.910156 256.976562 260.261719 253.269531 263.003906 L 247.453125 267.3125 C 244.847656 269.242188 238.160156 273.59375 235.335938 275.191406 L 227.398438 279.691406 C 223.820312 281.71875 214.8125 286.082031 211.003906 287.632812 L 205.25 289.976562 C 202.71875 291.007812 196.15625 293.304688 193.535156 294.074219 L 190.230469 295.046875 C 188.742188 295.484375 185.0625 296.3125 183.527344 296.550781 L 173.398438 298.132812 C 168.734375 298.863281 157.742188 299.714844 153.019531 299.714844 L 143.320312 299.714844 C 142.820312 299.714844 142.324219 299.679688 141.828125 299.605469 L 133.109375 298.296875 C 130.710938 297.9375 124.945312 296.6875 122.609375 296.019531 L 120.023438 295.28125 C 118.851562 294.945312 116.085938 293.949219 114.96875 293.460938 L 110.289062 291.414062 C 108.039062 290.429688 103.445312 287.820312 101.449219 286.394531 L 95.765625 282.335938 C 92.957031 280.328125 87.796875 275.585938 85.558594 272.953125 L 81.050781 267.648438 C 79.347656 265.648438 76.171875 261 74.925781 258.683594 L 73.632812 256.28125 C 73.015625 255.132812 71.929688 252.515625 71.554688 251.265625 L 70.335938 247.195312 C 70.207031 246.773438 69.820312 246.488281 69.382812 246.488281 C 68.972656 246.488281 68.644531 246.816406 68.644531 247.226562 L 68.644531 249.445312 C 68.644531 250.867188 68.964844 253.898438 69.261719 255.292969 L 70.0625 259.023438 C 70.441406 260.800781 71.65625 264.582031 72.382812 266.25 L 76.453125 275.617188 C 77.3125 277.59375 79.605469 281.683594 80.839844 283.453125 L 82.136719 285.300781 C 82.722656 286.136719 84.265625 288.050781 84.964844 288.800781 L 89 293.148438 C 90.941406 295.238281 95.558594 299.277344 97.886719 300.917969 L 101.746094 303.644531 C 103.570312 304.929688 107.875 307.410156 109.902344 308.335938 L 116.625 311.417969 C 119.902344 312.921875 127.066406 315.269531 130.59375 316 L 137.691406 317.46875 C 141.089844 318.171875 148.566406 318.9375 152.039062 318.9375 L 161.351562 318.9375 C 165.742188 318.9375 175.503906 318.035156 179.820312 317.234375 L 191.136719 315.128906 C 196.316406 314.164062 208.359375 310.992188 213.339844 309.28125 L 219.726562 307.085938 C 222.578125 306.105469 229.472656 303.265625 232.1875 301.949219 L 240.609375 297.875 C 244.371094 296.054688 253.386719 291.011719 256.90625 288.757812 L 262.207031 285.367188 C 264.46875 283.917969 270.414062 279.828125 272.574219 278.230469 L 278.835938 273.601562 C 281.355469 271.738281 287.390625 266.734375 289.6875 264.597656 L 292.277344 262.195312 C 293.390625 261.160156 296.226562 258.316406 297.257812 257.195312 L 320.230469 232.253906 C 320.535156 231.921875 321.015625 231.820312 321.429688 231.996094 L 323.328125 232.808594 C 324.597656 233.355469 327.058594 234.777344 328.167969 235.609375 L 333.898438 239.90625 C 334.449219 240.320312 335.207031 240.574219 335.894531 240.574219 L 336.449219 240.574219 C 336.757812 240.574219 337.011719 240.328125 337.019531 240.019531 L 337.371094 229.113281 C 337.53125 224.210938 337.492188 211.101562 337.300781 206.199219 L 336.292969 179.960938 C 336.277344 179.523438 335.960938 179.152344 335.527344 179.066406 Z M 335.527344 179.066406 " clip-rule="nonzero"/></clipPath><clipPath id="cbfd0f5ca7"><path d="M 0.644531 0.472656 L 269.5 0.472656 L 269.5 140.9375 L 0.644531 140.9375 Z M 0.644531 0.472656 " clip-rule="nonzero"/></clipPath><clipPath id="2f152d3339"><path d="M 267.527344 1.066406 L 265.304688 0.621094 C 264.828125 0.523438 264.332031 0.597656 263.90625 0.824219 L 216.953125 25.722656 C 216.273438 26.085938 215.460938 26.816406 215.035156 27.457031 L 214.664062 28.011719 C 214.449219 28.332031 214.492188 28.761719 214.765625 29.035156 L 215.773438 30.042969 C 216.523438 30.792969 218.15625 32.023438 219.082031 32.539062 L 230.238281 38.734375 C 230.4375 38.847656 230.558594 39.058594 230.558594 39.285156 L 230.558594 39.65625 C 230.558594 40.121094 230.386719 40.605469 230.089844 40.964844 L 223.300781 49.179688 C 220.246094 52.882812 212.234375 61.398438 208.730469 64.679688 L 201.164062 71.757812 C 197.796875 74.910156 188.976562 82.261719 185.269531 85.003906 L 179.453125 89.3125 C 176.847656 91.242188 170.160156 95.59375 167.335938 97.191406 L 159.398438 101.691406 C 155.820312 103.71875 146.8125 108.082031 143.003906 109.632812 L 137.25 111.976562 C 134.71875 113.007812 128.15625 115.304688 125.535156 116.074219 L 122.230469 117.046875 C 120.742188 117.484375 117.0625 118.3125 115.527344 118.550781 L 105.398438 120.132812 C 100.734375 120.863281 89.742188 121.714844 85.019531 121.714844 L 75.320312 121.714844 C 74.820312 121.714844 74.324219 121.679688 73.828125 121.605469 L 65.109375 120.296875 C 62.710938 119.9375 56.945312 118.6875 54.609375 118.019531 L 52.023438 117.28125 C 50.851562 116.945312 48.085938 115.949219 46.96875 115.460938 L 42.289062 113.414062 C 40.039062 112.429688 35.445312 109.820312 33.449219 108.394531 L 27.765625 104.335938 C 24.957031 102.328125 19.796875 97.585938 17.558594 94.953125 L 13.050781 89.648438 C 11.347656 87.648438 8.171875 83 6.925781 80.683594 L 5.632812 78.28125 C 5.015625 77.132812 3.929688 74.515625 3.554688 73.265625 L 2.335938 69.195312 C 2.207031 68.773438 1.820312 68.488281 1.382812 68.488281 C 0.972656 68.488281 0.644531 68.816406 0.644531 69.226562 L 0.644531 71.445312 C 0.644531 72.867188 0.964844 75.898438 1.261719 77.292969 L 2.0625 81.023438 C 2.441406 82.800781 3.65625 86.582031 4.382812 88.25 L 8.453125 97.617188 C 9.3125 99.59375 11.605469 103.683594 12.839844 105.453125 L 14.136719 107.300781 C 14.722656 108.136719 16.265625 110.050781 16.964844 110.800781 L 21 115.148438 C 22.941406 117.238281 27.558594 121.277344 29.886719 122.917969 L 33.746094 125.644531 C 35.570312 126.929688 39.875 129.410156 41.902344 130.335938 L 48.625 133.417969 C 51.902344 134.921875 59.066406 137.269531 62.59375 138 L 69.691406 139.46875 C 73.089844 140.171875 80.566406 140.9375 84.039062 140.9375 L 93.351562 140.9375 C 97.742188 140.9375 107.503906 140.035156 111.820312 139.234375 L 123.136719 137.128906 C 128.316406 136.164062 140.359375 132.992188 145.339844 131.28125 L 151.726562 129.085938 C 154.578125 128.105469 161.472656 125.265625 164.1875 123.949219 L 172.609375 119.875 C 176.371094 118.054688 185.386719 113.011719 188.90625 110.757812 L 194.207031 107.367188 C 196.46875 105.917969 202.414062 101.828125 204.574219 100.230469 L 210.835938 95.601562 C 213.355469 93.738281 219.390625 88.734375 221.6875 86.597656 L 224.277344 84.195312 C 225.390625 83.160156 228.226562 80.316406 229.257812 79.195312 L 252.230469 54.253906 C 252.535156 53.921875 253.015625 53.820312 253.429688 53.996094 L 255.328125 54.808594 C 256.597656 55.355469 259.058594 56.777344 260.167969 57.609375 L 265.898438 61.90625 C 266.449219 62.320312 267.207031 62.574219 267.894531 62.574219 L 268.449219 62.574219 C 268.757812 62.574219 269.011719 62.328125 269.019531 62.019531 L 269.371094 51.113281 C 269.53125 46.210938 269.492188 33.101562 269.300781 28.199219 L 268.292969 1.960938 C 268.277344 1.523438 267.960938 1.152344 267.527344 1.066406 Z M 267.527344 1.066406 " clip-rule="nonzero"/></clipPath><clipPath id="430fb5d501"><rect x="0" width="270" y="0" height="141"/></clipPath></defs><g clip-path="url(#c0db2c31de)"><g transform="matrix(1, 0, 0, 1, 115, 90)"><g clip-path="url(#16923b56e0)"><g clip-path="url(#7748100320)"><path fill="#ffffff" d="M 0.269531 0.03125 L 197.75 0.03125 L 197.75 238.398438 L 0.269531 238.398438 Z M 0.269531 0.03125 " fill-opacity="1" fill-rule="nonzero"/></g></g></g></g><g clip-path="url(#619428ba4d)"><g clip-path="url(#6aa711e1e0)"><g transform="matrix(1, 0, 0, 1, 61, 51)"><g clip-path="url(#7022b7a0de)"><g clip-path="url(#4dc8f3a748)"><g clip-path="url(#524b839fa1)"><path fill="#ffffff" d="M 0.285156 12.992188 L 197.34375 0.078125 L 212.933594 237.9375 L 15.875 250.851562 Z M 0.285156 12.992188 " fill-opacity="1" fill-rule="nonzero"/></g></g></g></g></g></g><g clip-path="url(#c2fc581ab7)"><path fill="#7d2d91" d="M 310.3125 79.167969 L 267.707031 79.167969 L 265.21875 43.695312 C 265.097656 41.988281 264.332031 40.398438 263.039062 39.277344 C 261.742188 38.101562 260.035156 37.511719 258.328125 37.6875 L 64.449219 51.171875 C 60.914062 51.40625 58.207031 54.527344 58.441406 58.058594 L 75.457031 302.867188 C 75.695312 306.28125 78.578125 308.871094 81.933594 308.871094 L 82.40625 308.871094 L 109.515625 306.972656 L 109.515625 331.027344 C 109.515625 334.601562 112.410156 337.5 115.988281 337.5 L 310.3125 337.5 C 313.890625 337.5 316.789062 334.601562 316.789062 331.027344 L 316.789062 85.644531 C 316.789062 82.066406 313.890625 79.167969 310.3125 79.167969 Z M 109.515625 85.644531 L 109.515625 294.011719 L 87.941406 295.507812 L 71.808594 63.652344 L 252.792969 51.054688 L 254.753906 79.167969 L 115.988281 79.167969 C 112.410156 79.167969 109.515625 82.066406 109.515625 85.644531 Z M 303.839844 324.550781 L 122.460938 324.550781 L 122.460938 92.117188 L 303.839844 92.117188 Z M 303.839844 324.550781 " fill-opacity="1" fill-rule="nonzero"/></g><path fill="#7d2d91" d="M 152.773438 138.363281 L 202.875 138.363281 C 206.453125 138.363281 209.351562 135.464844 209.351562 131.886719 C 209.351562 128.3125 206.453125 125.414062 202.875 125.414062 L 152.773438 125.414062 C 149.199219 125.414062 146.300781 128.3125 146.300781 131.886719 C 146.300781 135.464844 149.199219 138.363281 152.773438 138.363281 Z M 152.773438 138.363281 " fill-opacity="1" fill-rule="nonzero"/><path fill="#7d2d91" d="M 152.773438 168.945312 L 273.527344 168.945312 C 277.105469 168.945312 280.003906 166.046875 280.003906 162.46875 C 280.003906 158.894531 277.105469 155.996094 273.527344 155.996094 L 152.773438 155.996094 C 149.199219 155.996094 146.300781 158.894531 146.300781 162.46875 C 146.300781 166.046875 149.199219 168.945312 152.773438 168.945312 Z M 152.773438 168.945312 " fill-opacity="1" fill-rule="nonzero"/><path fill="#7d2d91" d="M 152.773438 199.519531 L 273.527344 199.519531 C 277.105469 199.519531 280.003906 196.621094 280.003906 193.046875 C 280.003906 189.46875 277.105469 186.570312 273.527344 186.570312 L 152.773438 186.570312 C 149.199219 186.570312 146.300781 189.46875 146.300781 193.046875 C 146.300781 196.621094 149.199219 199.519531 152.773438 199.519531 Z M 152.773438 199.519531 " fill-opacity="1" fill-rule="nonzero"/><path fill="#7d2d91" d="M 152.773438 230.097656 L 273.527344 230.097656 C 277.105469 230.097656 280.003906 227.199219 280.003906 223.621094 C 280.003906 220.046875 277.105469 217.148438 273.527344 217.148438 L 152.773438 217.148438 C 149.199219 217.148438 146.300781 220.046875 146.300781 223.621094 C 146.300781 227.199219 149.199219 230.097656 152.773438 230.097656 Z M 152.773438 230.097656 " fill-opacity="1" fill-rule="nonzero"/><path fill="#7d2d91" d="M 152.773438 260.679688 L 273.527344 260.679688 C 277.105469 260.679688 280.003906 257.78125 280.003906 254.207031 C 280.003906 250.628906 277.105469 247.730469 273.527344 247.730469 L 152.773438 247.730469 C 149.199219 247.730469 146.300781 250.628906 146.300781 254.207031 C 146.300781 257.78125 149.199219 260.679688 152.773438 260.679688 Z M 152.773438 260.679688 " fill-opacity="1" fill-rule="nonzero"/><path fill="#7d2d91" d="M 273.527344 278.308594 L 241.089844 278.308594 C 237.511719 278.308594 234.613281 281.207031 234.613281 284.78125 C 234.613281 288.359375 237.511719 291.253906 241.089844 291.253906 L 273.527344 291.253906 C 277.105469 291.253906 280.003906 288.359375 280.003906 284.78125 C 280.003906 281.207031 277.105469 278.308594 273.527344 278.308594 Z M 273.527344 278.308594 " fill-opacity="1" fill-rule="nonzero"/><g clip-path="url(#84cb9958e8)"><g clip-path="url(#083debf344)"><g transform="matrix(1, 0, 0, 1, 68, 178)"><g clip-path="url(#430fb5d501)"><g clip-path="url(#cbfd0f5ca7)"><g clip-path="url(#2f152d3339)"><path fill="#ffc72c" d="M 0.644531 0.472656 L 269.5 0.472656 L 269.5 140.9375 L 0.644531 140.9375 Z M 0.644531 0.472656 " fill-opacity="1" fill-rule="nonzero"/></g></g></g></g></g></g></svg>