<svg xmlns="http://www.w3.org/2000/svg" xmlns:xlink="http://www.w3.org/1999/xlink" width="100" zoomAndPan="magnify" viewBox="0 0 75 74.999997" height="100" preserveAspectRatio="xMidYMid meet" version="1.0"><defs><clipPath id="abcf3d8f20"><path d="M 23.054688 18.007812 L 62.550781 18.007812 L 62.550781 65.605469 L 23.054688 65.605469 Z M 23.054688 18.007812 " clip-rule="nonzero"/></clipPath><clipPath id="cebba2cbad"><path d="M 0.0546875 0.0078125 L 39.550781 0.0078125 L 39.550781 47.605469 L 0.0546875 47.605469 Z M 0.0546875 0.0078125 " clip-rule="nonzero"/></clipPath><clipPath id="c8761f90c7"><rect x="0" width="40" y="0" height="48"/></clipPath><clipPath id="0e2c025ccb"><path d="M 12 10 L 55 10 L 55 61 L 12 61 Z M 12 10 " clip-rule="nonzero"/></clipPath><clipPath id="06ad18b141"><path d="M 12.257812 12.796875 L 51.667969 10.214844 L 54.78125 57.710938 L 15.371094 60.296875 Z M 12.257812 12.796875 " clip-rule="nonzero"/></clipPath><clipPath id="8dc753ea3a"><path d="M 0.238281 0.078125 L 42.960938 0.078125 L 42.960938 50.480469 L 0.238281 50.480469 Z M 0.238281 0.078125 " clip-rule="nonzero"/></clipPath><clipPath id="9ff3caaf9f"><path d="M 0.257812 2.796875 L 39.667969 0.214844 L 42.78125 47.710938 L 3.371094 50.296875 Z M 0.257812 2.796875 " clip-rule="nonzero"/></clipPath><clipPath id="b95771f5ab"><rect x="0" width="43" y="0" height="51"/></clipPath><clipPath id="8d9758ffda"><path d="M 11.636719 7.5 L 63.386719 7.5 L 63.386719 67.5 L 11.636719 67.5 Z M 11.636719 7.5 " clip-rule="nonzero"/></clipPath><clipPath id="93ab5b291a"><path d="M 13.730469 35.695312 L 67.5 35.695312 L 67.5 63.789062 L 13.730469 63.789062 Z M 13.730469 35.695312 " clip-rule="nonzero"/></clipPath><clipPath id="0fd4d0ccca"><path d="M 67.105469 35.8125 L 66.660156 35.722656 C 66.566406 35.703125 66.464844 35.71875 66.382812 35.765625 L 56.992188 40.746094 C 56.855469 40.816406 56.691406 40.964844 56.605469 41.089844 L 56.53125 41.203125 C 56.488281 41.265625 56.5 41.351562 56.554688 41.40625 L 56.753906 41.609375 C 56.90625 41.757812 57.230469 42.003906 57.417969 42.109375 L 59.648438 43.347656 C 59.6875 43.371094 59.710938 43.410156 59.710938 43.457031 L 59.710938 43.53125 C 59.710938 43.625 59.675781 43.722656 59.617188 43.792969 L 58.261719 45.4375 C 57.648438 46.175781 56.046875 47.878906 55.347656 48.535156 L 53.832031 49.953125 C 53.160156 50.582031 51.394531 52.050781 50.652344 52.601562 L 49.492188 53.460938 C 48.96875 53.847656 47.632812 54.71875 47.066406 55.039062 L 45.480469 55.9375 C 44.765625 56.34375 42.960938 57.214844 42.199219 57.527344 L 41.050781 57.996094 C 40.542969 58.203125 39.230469 58.660156 38.707031 58.816406 L 38.046875 59.007812 C 37.75 59.097656 37.011719 59.261719 36.707031 59.308594 L 34.679688 59.625 C 33.746094 59.773438 31.546875 59.941406 30.605469 59.941406 L 28.664062 59.941406 C 28.5625 59.941406 28.464844 59.9375 28.367188 59.921875 L 26.621094 59.660156 C 26.140625 59.585938 24.988281 59.335938 24.523438 59.203125 L 24.003906 59.054688 C 23.769531 58.988281 23.21875 58.789062 22.992188 58.691406 L 22.058594 58.28125 C 21.609375 58.085938 20.6875 57.5625 20.289062 57.277344 L 19.152344 56.46875 C 18.589844 56.066406 17.558594 55.117188 17.113281 54.589844 L 16.210938 53.53125 C 15.871094 53.128906 15.234375 52.199219 14.984375 51.738281 L 14.726562 51.257812 C 14.601562 51.027344 14.386719 50.503906 14.3125 50.253906 L 14.066406 49.4375 C 14.042969 49.355469 13.964844 49.296875 13.875 49.296875 C 13.792969 49.296875 13.730469 49.363281 13.730469 49.445312 L 13.730469 49.890625 C 13.730469 50.171875 13.792969 50.78125 13.851562 51.058594 L 14.011719 51.804688 C 14.089844 52.160156 14.332031 52.917969 14.476562 53.25 L 15.289062 55.125 C 15.460938 55.519531 15.921875 56.335938 16.167969 56.691406 L 16.425781 57.058594 C 16.542969 57.226562 16.851562 57.609375 16.992188 57.761719 L 17.800781 58.628906 C 18.1875 59.046875 19.113281 59.855469 19.578125 60.183594 L 20.347656 60.730469 C 20.714844 60.984375 21.574219 61.480469 21.980469 61.667969 L 23.324219 62.285156 C 23.980469 62.585938 25.414062 63.054688 26.117188 63.199219 L 27.539062 63.492188 C 28.21875 63.632812 29.714844 63.789062 30.40625 63.789062 L 32.269531 63.789062 C 33.148438 63.789062 35.101562 63.605469 35.964844 63.445312 L 38.226562 63.027344 C 39.261719 62.832031 41.671875 62.199219 42.667969 61.855469 L 43.945312 61.417969 C 44.515625 61.222656 45.894531 60.652344 46.4375 60.390625 L 48.121094 59.574219 C 48.875 59.210938 50.675781 58.203125 51.382812 57.75 L 52.441406 57.074219 C 52.894531 56.785156 54.082031 55.964844 54.515625 55.644531 L 55.765625 54.71875 C 56.269531 54.347656 57.476562 53.347656 57.9375 52.917969 L 58.457031 52.4375 C 58.679688 52.230469 59.246094 51.664062 59.453125 51.4375 L 64.046875 46.449219 C 64.105469 46.382812 64.203125 46.363281 64.285156 46.398438 L 64.664062 46.5625 C 64.917969 46.671875 65.410156 46.957031 65.632812 47.121094 L 66.78125 47.980469 C 66.890625 48.0625 67.042969 48.113281 67.179688 48.113281 L 67.289062 48.113281 C 67.351562 48.113281 67.402344 48.066406 67.402344 48.003906 L 67.472656 45.824219 C 67.507812 44.84375 67.5 42.21875 67.460938 41.238281 L 67.257812 35.992188 C 67.253906 35.90625 67.191406 35.832031 67.105469 35.8125 Z M 67.105469 35.8125 " clip-rule="nonzero"/></clipPath><clipPath id="8e69f1bb6c"><path d="M 0.730469 0.695312 L 54.5 0.695312 L 54.5 28.789062 L 0.730469 28.789062 Z M 0.730469 0.695312 " clip-rule="nonzero"/></clipPath><clipPath id="80a96846d1"><path d="M 54.105469 0.8125 L 53.660156 0.722656 C 53.566406 0.703125 53.464844 0.71875 53.382812 0.765625 L 43.992188 5.746094 C 43.855469 5.816406 43.691406 5.964844 43.605469 6.089844 L 43.53125 6.203125 C 43.488281 6.265625 43.5 6.351562 43.554688 6.40625 L 43.753906 6.609375 C 43.90625 6.757812 44.230469 7.003906 44.417969 7.109375 L 46.648438 8.347656 C 46.6875 8.371094 46.710938 8.410156 46.710938 8.457031 L 46.710938 8.53125 C 46.710938 8.625 46.675781 8.722656 46.617188 8.792969 L 45.261719 10.4375 C 44.648438 11.175781 43.046875 12.878906 42.347656 13.535156 L 40.832031 14.953125 C 40.160156 15.582031 38.394531 17.050781 37.652344 17.601562 L 36.492188 18.460938 C 35.96875 18.847656 34.632812 19.71875 34.066406 20.039062 L 32.480469 20.9375 C 31.765625 21.34375 29.960938 22.214844 29.199219 22.527344 L 28.050781 22.996094 C 27.542969 23.203125 26.230469 23.660156 25.707031 23.816406 L 25.046875 24.007812 C 24.75 24.097656 24.011719 24.261719 23.707031 24.308594 L 21.679688 24.625 C 20.746094 24.773438 18.546875 24.941406 17.605469 24.941406 L 15.664062 24.941406 C 15.5625 24.941406 15.464844 24.9375 15.367188 24.921875 L 13.621094 24.660156 C 13.140625 24.585938 11.988281 24.335938 11.523438 24.203125 L 11.003906 24.054688 C 10.769531 23.988281 10.21875 23.789062 9.992188 23.691406 L 9.058594 23.28125 C 8.609375 23.085938 7.6875 22.5625 7.289062 22.277344 L 6.152344 21.46875 C 5.589844 21.066406 4.558594 20.117188 4.113281 19.589844 L 3.210938 18.53125 C 2.871094 18.128906 2.234375 17.199219 1.984375 16.738281 L 1.726562 16.257812 C 1.601562 16.027344 1.386719 15.503906 1.3125 15.253906 L 1.066406 14.4375 C 1.042969 14.355469 0.964844 14.296875 0.875 14.296875 C 0.792969 14.296875 0.730469 14.363281 0.730469 14.445312 L 0.730469 14.890625 C 0.730469 15.171875 0.792969 15.78125 0.851562 16.058594 L 1.011719 16.804688 C 1.089844 17.160156 1.332031 17.917969 1.476562 18.25 L 2.289062 20.125 C 2.460938 20.519531 2.921875 21.335938 3.167969 21.691406 L 3.425781 22.058594 C 3.542969 22.226562 3.851562 22.609375 3.992188 22.761719 L 4.800781 23.628906 C 5.1875 24.046875 6.113281 24.855469 6.578125 25.183594 L 7.347656 25.730469 C 7.714844 25.984375 8.574219 26.480469 8.980469 26.667969 L 10.324219 27.285156 C 10.980469 27.585938 12.414062 28.054688 13.117188 28.199219 L 14.539062 28.492188 C 15.21875 28.632812 16.714844 28.789062 17.40625 28.789062 L 19.269531 28.789062 C 20.148438 28.789062 22.101562 28.605469 22.964844 28.445312 L 25.226562 28.027344 C 26.261719 27.832031 28.671875 27.199219 29.667969 26.855469 L 30.945312 26.417969 C 31.515625 26.222656 32.894531 25.652344 33.4375 25.390625 L 35.121094 24.574219 C 35.875 24.210938 37.675781 23.203125 38.382812 22.75 L 39.441406 22.074219 C 39.894531 21.785156 41.082031 20.964844 41.515625 20.644531 L 42.765625 19.71875 C 43.269531 19.347656 44.476562 18.347656 44.9375 17.917969 L 45.457031 17.4375 C 45.679688 17.230469 46.246094 16.664062 46.453125 16.4375 L 51.046875 11.449219 C 51.105469 11.382812 51.203125 11.363281 51.285156 11.398438 L 51.664062 11.5625 C 51.917969 11.671875 52.410156 11.957031 52.632812 12.121094 L 53.78125 12.980469 C 53.890625 13.0625 54.042969 13.113281 54.179688 13.113281 L 54.289062 13.113281 C 54.351562 13.113281 54.402344 13.066406 54.402344 13.003906 L 54.472656 10.824219 C 54.507812 9.84375 54.5 7.21875 54.460938 6.238281 L 54.257812 0.992188 C 54.253906 0.90625 54.191406 0.832031 54.105469 0.8125 Z M 54.105469 0.8125 " clip-rule="nonzero"/></clipPath><clipPath id="f7b8373301"><rect x="0" width="55" y="0" height="29"/></clipPath></defs><g clip-path="url(#abcf3d8f20)"><g transform="matrix(1, 0, 0, 1, 23, 18)"><g clip-path="url(#c8761f90c7)"><g clip-path="url(#cebba2cbad)"><path fill="#ffffff" d="M 0.0546875 0.0078125 L 39.550781 0.0078125 L 39.550781 47.679688 L 0.0546875 47.679688 Z M 0.0546875 0.0078125 " fill-opacity="1" fill-rule="nonzero"/></g></g></g></g><g clip-path="url(#0e2c025ccb)"><g clip-path="url(#06ad18b141)"><g transform="matrix(1, 0, 0, 1, 12, 10)"><g clip-path="url(#b95771f5ab)"><g clip-path="url(#8dc753ea3a)"><g clip-path="url(#9ff3caaf9f)"><path fill="#ffffff" d="M 0.257812 2.796875 L 39.667969 0.214844 L 42.785156 47.789062 L 3.375 50.371094 Z M 0.257812 2.796875 " fill-opacity="1" fill-rule="nonzero"/></g></g></g></g></g></g><g clip-path="url(#8d9758ffda)"><path fill="#7d2d91" d="M 62.054688 15.835938 L 53.535156 15.835938 L 53.039062 8.742188 C 53.015625 8.398438 52.859375 8.082031 52.601562 7.859375 C 52.34375 7.621094 52 7.503906 51.660156 7.539062 L 12.886719 10.234375 C 12.179688 10.28125 11.636719 10.90625 11.683594 11.613281 L 15.089844 60.570312 C 15.136719 61.253906 15.710938 61.773438 16.382812 61.773438 L 16.476562 61.773438 L 21.898438 61.394531 L 21.898438 66.203125 C 21.898438 66.917969 22.480469 67.5 23.195312 67.5 L 62.054688 67.5 C 62.773438 67.5 63.351562 66.917969 63.351562 66.203125 L 63.351562 17.128906 C 63.351562 16.414062 62.773438 15.835938 62.054688 15.835938 Z M 21.898438 17.128906 L 21.898438 58.800781 L 17.585938 59.101562 L 14.359375 12.730469 L 50.554688 10.210938 L 50.945312 15.835938 L 23.195312 15.835938 C 22.480469 15.835938 21.898438 16.414062 21.898438 17.128906 Z M 60.761719 64.910156 L 24.488281 64.910156 L 24.488281 18.425781 L 60.761719 18.425781 Z M 60.761719 64.910156 " fill-opacity="1" fill-rule="nonzero"/></g><path fill="#7d2d91" d="M 30.550781 27.671875 L 40.570312 27.671875 C 41.285156 27.671875 41.863281 27.09375 41.863281 26.378906 C 41.863281 25.664062 41.285156 25.082031 40.570312 25.082031 L 30.550781 25.082031 C 29.835938 25.082031 29.257812 25.664062 29.257812 26.378906 C 29.257812 27.09375 29.835938 27.671875 30.550781 27.671875 Z M 30.550781 27.671875 " fill-opacity="1" fill-rule="nonzero"/><path fill="#7d2d91" d="M 30.550781 33.789062 L 54.699219 33.789062 C 55.414062 33.789062 55.996094 33.210938 55.996094 32.496094 C 55.996094 31.777344 55.414062 31.199219 54.699219 31.199219 L 30.550781 31.199219 C 29.835938 31.199219 29.257812 31.777344 29.257812 32.496094 C 29.257812 33.210938 29.835938 33.789062 30.550781 33.789062 Z M 30.550781 33.789062 " fill-opacity="1" fill-rule="nonzero"/><path fill="#7d2d91" d="M 30.550781 39.902344 L 54.699219 39.902344 C 55.414062 39.902344 55.996094 39.324219 55.996094 38.609375 C 55.996094 37.894531 55.414062 37.316406 54.699219 37.316406 L 30.550781 37.316406 C 29.835938 37.316406 29.257812 37.894531 29.257812 38.609375 C 29.257812 39.324219 29.835938 39.902344 30.550781 39.902344 Z M 30.550781 39.902344 " fill-opacity="1" fill-rule="nonzero"/><path fill="#7d2d91" d="M 30.550781 46.019531 L 54.699219 46.019531 C 55.414062 46.019531 55.996094 45.4375 55.996094 44.722656 C 55.996094 44.007812 55.414062 43.429688 54.699219 43.429688 L 30.550781 43.429688 C 29.835938 43.429688 29.257812 44.007812 29.257812 44.722656 C 29.257812 45.4375 29.835938 46.019531 30.550781 46.019531 Z M 30.550781 46.019531 " fill-opacity="1" fill-rule="nonzero"/><path fill="#7d2d91" d="M 30.550781 52.136719 L 54.699219 52.136719 C 55.414062 52.136719 55.996094 51.554688 55.996094 50.839844 C 55.996094 50.125 55.414062 49.546875 54.699219 49.546875 L 30.550781 49.546875 C 29.835938 49.546875 29.257812 50.125 29.257812 50.839844 C 29.257812 51.554688 29.835938 52.136719 30.550781 52.136719 Z M 30.550781 52.136719 " fill-opacity="1" fill-rule="nonzero"/><path fill="#7d2d91" d="M 54.699219 55.660156 L 48.210938 55.660156 C 47.496094 55.660156 46.917969 56.238281 46.917969 56.957031 C 46.917969 57.671875 47.496094 58.25 48.210938 58.25 L 54.699219 58.25 C 55.414062 58.25 55.996094 57.671875 55.996094 56.957031 C 55.996094 56.238281 55.414062 55.660156 54.699219 55.660156 Z M 54.699219 55.660156 " fill-opacity="1" fill-rule="nonzero"/><g clip-path="url(#93ab5b291a)"><g clip-path="url(#0fd4d0ccca)"><g transform="matrix(1, 0, 0, 1, 13, 35)"><g clip-path="url(#f7b8373301)"><g clip-path="url(#8e69f1bb6c)"><g clip-path="url(#80a96846d1)"><path fill="#ffc72c" d="M 0.730469 0.695312 L 54.5 0.695312 L 54.5 28.789062 L 0.730469 28.789062 Z M 0.730469 0.695312 " fill-opacity="1" fill-rule="nonzero"/></g></g></g></g></g></g></svg>