<svg xmlns="http://www.w3.org/2000/svg" xmlns:xlink="http://www.w3.org/1999/xlink" width="800" zoomAndPan="magnify" viewBox="0 0 600 599.999999" height="800" preserveAspectRatio="xMidYMid meet" version="1.0"><defs><clipPath id="7769839242"><path d="M 184.429688 144.050781 L 500.402344 144.050781 L 500.402344 524.839844 L 184.429688 524.839844 Z M 184.429688 144.050781 " clip-rule="nonzero"/></clipPath><clipPath id="287e1b5d4d"><path d="M 0.429688 0.0507812 L 316.402344 0.0507812 L 316.402344 380.839844 L 0.429688 380.839844 Z M 0.429688 0.0507812 " clip-rule="nonzero"/></clipPath><clipPath id="18cda7dd89"><rect x="0" width="317" y="0" height="381"/></clipPath><clipPath id="ca5b05822d"><path d="M 98 81 L 439 81 L 439 483 L 98 483 Z M 98 81 " clip-rule="nonzero"/></clipPath><clipPath id="a30c54c70c"><path d="M 98.054688 102.390625 L 413.351562 81.726562 L 438.253906 461.699219 L 122.957031 482.363281 Z M 98.054688 102.390625 " clip-rule="nonzero"/></clipPath><clipPath id="d2ad9571bf"><path d="M 0 0.601562 L 340.480469 0.601562 L 340.480469 401.398438 L 0 401.398438 Z M 0 0.601562 " clip-rule="nonzero"/></clipPath><clipPath id="d85a70a055"><path d="M 0.0546875 21.390625 L 315.351562 0.726562 L 340.253906 380.699219 L 24.957031 401.363281 Z M 0.0546875 21.390625 " clip-rule="nonzero"/></clipPath><clipPath id="dca1eaf14c"><rect x="0" width="341" y="0" height="402"/></clipPath><clipPath id="0a178de406"><path d="M 93.101562 60 L 507 60 L 507 540 L 93.101562 540 Z M 93.101562 60 " clip-rule="nonzero"/></clipPath><clipPath id="41584886b1"><path d="M 109.828125 285.558594 L 540 285.558594 L 540 510.300781 L 109.828125 510.300781 Z M 109.828125 285.558594 " clip-rule="nonzero"/></clipPath><clipPath id="aee32b2f68"><path d="M 536.84375 286.503906 L 533.285156 285.792969 C 532.523438 285.640625 531.734375 285.753906 531.046875 286.117188 L 455.921875 325.957031 C 454.835938 326.535156 453.539062 327.707031 452.855469 328.730469 L 452.265625 329.617188 C 451.921875 330.132812 451.988281 330.820312 452.429688 331.257812 L 454.039062 332.871094 C 455.238281 334.066406 457.851562 336.039062 459.328125 336.863281 L 477.179688 346.777344 C 477.5 346.957031 477.695312 347.292969 477.695312 347.65625 L 477.695312 348.246094 C 477.695312 348.996094 477.417969 349.765625 476.945312 350.34375 L 466.082031 363.488281 C 461.191406 369.410156 448.378906 383.039062 442.769531 388.285156 L 430.660156 399.613281 C 425.273438 404.652344 411.160156 416.414062 405.230469 420.808594 L 395.925781 427.703125 C 391.753906 430.789062 381.054688 437.75 376.539062 440.308594 L 363.835938 447.503906 C 358.113281 450.75 343.699219 457.730469 337.609375 460.214844 L 328.402344 463.964844 C 324.351562 465.613281 313.851562 469.289062 309.65625 470.523438 L 304.371094 472.074219 C 301.984375 472.777344 296.101562 474.097656 293.640625 474.480469 L 277.4375 477.011719 C 269.976562 478.179688 252.386719 479.542969 244.832031 479.542969 L 229.3125 479.542969 C 228.515625 479.542969 227.71875 479.484375 226.925781 479.367188 L 212.972656 477.273438 C 209.132812 476.699219 199.910156 474.695312 196.175781 473.628906 L 192.039062 472.449219 C 190.164062 471.914062 185.738281 470.320312 183.953125 469.539062 L 176.460938 466.261719 C 172.863281 464.6875 165.515625 460.515625 162.320312 458.234375 L 153.226562 451.738281 C 148.730469 448.527344 140.472656 440.9375 136.894531 436.726562 L 129.679688 428.238281 C 126.957031 425.035156 121.875 417.597656 119.882812 413.894531 L 117.8125 410.050781 C 116.824219 408.214844 115.089844 404.027344 114.488281 402.027344 L 112.535156 395.511719 C 112.332031 394.839844 111.714844 394.378906 111.011719 394.378906 C 110.359375 394.378906 109.828125 394.910156 109.828125 395.5625 L 109.828125 399.109375 C 109.828125 401.390625 110.34375 406.242188 110.820312 408.46875 L 112.097656 414.433594 C 112.707031 417.28125 114.648438 423.328125 115.8125 426 L 122.328125 440.988281 C 123.703125 444.148438 127.367188 450.695312 129.347656 453.523438 L 131.417969 456.480469 C 132.355469 457.820312 134.828125 460.878906 135.941406 462.082031 L 142.402344 469.039062 C 145.507812 472.378906 152.894531 478.839844 156.621094 481.472656 L 162.796875 485.832031 C 165.710938 487.886719 172.601562 491.855469 175.84375 493.339844 L 186.601562 498.269531 C 191.839844 500.671875 203.304688 504.433594 208.949219 505.597656 L 220.304688 507.949219 C 225.746094 509.074219 237.707031 510.300781 243.261719 510.300781 L 258.160156 510.300781 C 265.1875 510.300781 280.804688 508.859375 287.710938 507.574219 L 305.820312 504.203125 C 314.105469 502.664062 333.375 497.589844 341.34375 494.847656 L 351.558594 491.335938 C 356.125 489.765625 367.15625 485.222656 371.503906 483.117188 L 384.972656 476.601562 C 390.992188 473.6875 405.421875 465.617188 411.050781 462.015625 L 419.535156 456.585938 C 423.152344 454.269531 432.660156 447.722656 436.117188 445.167969 L 446.136719 437.765625 C 450.171875 434.78125 459.824219 426.773438 463.503906 423.359375 L 467.640625 419.515625 C 469.425781 417.859375 473.960938 413.304688 475.609375 411.515625 L 512.371094 371.605469 C 512.855469 371.074219 513.625 370.910156 514.285156 371.195312 L 517.324219 372.496094 C 519.359375 373.367188 523.292969 375.644531 525.066406 376.972656 L 534.238281 383.851562 C 535.117188 384.511719 536.332031 384.917969 537.429688 384.917969 L 538.316406 384.917969 C 538.8125 384.917969 539.21875 384.523438 539.234375 384.03125 L 539.796875 366.582031 C 540.050781 358.734375 539.984375 337.761719 539.683594 329.917969 L 538.070312 287.9375 C 538.042969 287.234375 537.535156 286.640625 536.84375 286.503906 Z M 536.84375 286.503906 " clip-rule="nonzero"/></clipPath><clipPath id="6a76bee090"><path d="M 0.828125 0.601562 L 431 0.601562 L 431 225.300781 L 0.828125 225.300781 Z M 0.828125 0.601562 " clip-rule="nonzero"/></clipPath><clipPath id="27b55f80ce"><path d="M 427.84375 1.503906 L 424.285156 0.792969 C 423.523438 0.640625 422.734375 0.753906 422.046875 1.117188 L 346.921875 40.957031 C 345.835938 41.535156 344.539062 42.707031 343.855469 43.730469 L 343.265625 44.617188 C 342.921875 45.132812 342.988281 45.820312 343.429688 46.257812 L 345.039062 47.871094 C 346.238281 49.066406 348.851562 51.039062 350.328125 51.863281 L 368.179688 61.777344 C 368.5 61.957031 368.695312 62.292969 368.695312 62.65625 L 368.695312 63.246094 C 368.695312 63.996094 368.417969 64.765625 367.945312 65.34375 L 357.082031 78.488281 C 352.191406 84.410156 339.378906 98.039062 333.769531 103.285156 L 321.660156 114.613281 C 316.273438 119.652344 302.160156 131.414062 296.230469 135.808594 L 286.925781 142.703125 C 282.753906 145.789062 272.054688 152.75 267.539062 155.308594 L 254.835938 162.503906 C 249.113281 165.75 234.699219 172.730469 228.609375 175.214844 L 219.402344 178.964844 C 215.351562 180.613281 204.851562 184.289062 200.65625 185.523438 L 195.371094 187.074219 C 192.984375 187.777344 187.101562 189.097656 184.640625 189.480469 L 168.4375 192.011719 C 160.976562 193.179688 143.386719 194.542969 135.832031 194.542969 L 120.3125 194.542969 C 119.515625 194.542969 118.71875 194.484375 117.925781 194.367188 L 103.972656 192.273438 C 100.132812 191.699219 90.910156 189.695312 87.175781 188.628906 L 83.039062 187.449219 C 81.164062 186.914062 76.738281 185.320312 74.953125 184.539062 L 67.460938 181.261719 C 63.863281 179.6875 56.515625 175.515625 53.320312 173.234375 L 44.226562 166.738281 C 39.730469 163.527344 31.472656 155.9375 27.894531 151.726562 L 20.679688 143.238281 C 17.957031 140.035156 12.875 132.597656 10.882812 128.894531 L 8.8125 125.050781 C 7.824219 123.214844 6.089844 119.027344 5.488281 117.027344 L 3.535156 110.511719 C 3.332031 109.839844 2.714844 109.378906 2.011719 109.378906 C 1.359375 109.378906 0.828125 109.910156 0.828125 110.5625 L 0.828125 114.109375 C 0.828125 116.390625 1.34375 121.242188 1.820312 123.46875 L 3.097656 129.433594 C 3.707031 132.28125 5.648438 138.328125 6.8125 141 L 13.328125 155.988281 C 14.703125 159.148438 18.367188 165.695312 20.347656 168.523438 L 22.417969 171.480469 C 23.355469 172.820312 25.828125 175.878906 26.941406 177.082031 L 33.402344 184.039062 C 36.507812 187.378906 43.894531 193.839844 47.621094 196.472656 L 53.796875 200.832031 C 56.710938 202.886719 63.601562 206.855469 66.84375 208.339844 L 77.601562 213.269531 C 82.839844 215.671875 94.304688 219.433594 99.949219 220.597656 L 111.304688 222.949219 C 116.746094 224.074219 128.707031 225.300781 134.261719 225.300781 L 149.160156 225.300781 C 156.1875 225.300781 171.804688 223.859375 178.710938 222.574219 L 196.820312 219.203125 C 205.105469 217.664062 224.375 212.589844 232.34375 209.847656 L 242.558594 206.335938 C 247.125 204.765625 258.15625 200.222656 262.503906 198.117188 L 275.972656 191.601562 C 281.992188 188.6875 296.421875 180.617188 302.050781 177.015625 L 310.535156 171.585938 C 314.152344 169.269531 323.660156 162.722656 327.117188 160.167969 L 337.136719 152.765625 C 341.171875 149.78125 350.824219 141.773438 354.503906 138.359375 L 358.640625 134.515625 C 360.425781 132.859375 364.960938 128.304688 366.609375 126.515625 L 403.371094 86.605469 C 403.855469 86.074219 404.625 85.910156 405.285156 86.195312 L 408.324219 87.496094 C 410.359375 88.367188 414.292969 90.644531 416.066406 91.972656 L 425.238281 98.851562 C 426.117188 99.511719 427.332031 99.917969 428.429688 99.917969 L 429.316406 99.917969 C 429.8125 99.917969 430.21875 99.523438 430.234375 99.03125 L 430.796875 81.582031 C 431.050781 73.734375 430.984375 52.761719 430.683594 44.917969 L 429.070312 2.9375 C 429.042969 2.234375 428.535156 1.640625 427.84375 1.503906 Z M 427.84375 1.503906 " clip-rule="nonzero"/></clipPath><clipPath id="faa5af7f19"><rect x="0" width="431" y="0" height="226"/></clipPath></defs><g clip-path="url(#7769839242)"><g transform="matrix(1, 0, 0, 1, 184, 144)"><g clip-path="url(#18cda7dd89)"><g clip-path="url(#287e1b5d4d)"><path fill="#ffffff" d="M 0.429688 0.0507812 L 316.402344 0.0507812 L 316.402344 381.4375 L 0.429688 381.4375 Z M 0.429688 0.0507812 " fill-opacity="1" fill-rule="nonzero"/></g></g></g></g><g clip-path="url(#ca5b05822d)"><g clip-path="url(#a30c54c70c)"><g transform="matrix(1, 0, 0, 1, 98, 81)"><g clip-path="url(#dca1eaf14c)"><g clip-path="url(#d2ad9571bf)"><g clip-path="url(#d85a70a055)"><path fill="#ffffff" d="M 0.0546875 21.390625 L 315.351562 0.726562 L 340.292969 381.296875 L 24.996094 401.960938 Z M 0.0546875 21.390625 " fill-opacity="1" fill-rule="nonzero"/></g></g></g></g></g></g><g clip-path="url(#0a178de406)"><path fill="#7d2d91" d="M 496.5 126.671875 L 428.324219 126.671875 L 424.34375 69.910156 C 424.15625 67.179688 422.929688 64.636719 420.859375 62.84375 C 418.785156 60.960938 416.054688 60.019531 413.320312 60.300781 L 103.117188 81.875 C 97.460938 82.25 93.128906 87.246094 93.507812 92.894531 L 120.730469 484.585938 C 121.105469 490.050781 125.722656 494.195312 131.09375 494.195312 L 131.847656 494.195312 L 175.21875 491.152344 L 175.21875 529.640625 C 175.21875 535.363281 179.855469 540 185.578125 540 L 496.5 540 C 502.222656 540 506.859375 535.363281 506.859375 529.640625 L 506.859375 137.027344 C 506.859375 131.308594 502.222656 126.671875 496.5 126.671875 Z M 175.21875 137.027344 L 175.21875 470.417969 L 140.703125 472.8125 L 114.890625 101.847656 L 404.46875 81.6875 L 407.601562 126.671875 L 185.578125 126.671875 C 179.855469 126.671875 175.21875 131.308594 175.21875 137.027344 Z M 486.140625 519.28125 L 195.9375 519.28125 L 195.9375 147.386719 L 486.140625 147.386719 Z M 486.140625 519.28125 " fill-opacity="1" fill-rule="nonzero"/></g><path fill="#7d2d91" d="M 244.4375 221.378906 L 324.601562 221.378906 C 330.324219 221.378906 334.957031 216.742188 334.957031 211.019531 C 334.957031 205.296875 330.324219 200.660156 324.601562 200.660156 L 244.4375 200.660156 C 238.714844 200.660156 234.078125 205.296875 234.078125 211.019531 C 234.078125 216.742188 238.714844 221.378906 244.4375 221.378906 Z M 244.4375 221.378906 " fill-opacity="1" fill-rule="nonzero"/><path fill="#7d2d91" d="M 244.4375 270.308594 L 437.640625 270.308594 C 443.363281 270.308594 448 265.671875 448 259.953125 C 448 254.230469 443.363281 249.59375 437.640625 249.59375 L 244.4375 249.59375 C 238.714844 249.59375 234.078125 254.230469 234.078125 259.953125 C 234.078125 265.671875 238.714844 270.308594 244.4375 270.308594 Z M 244.4375 270.308594 " fill-opacity="1" fill-rule="nonzero"/><path fill="#7d2d91" d="M 244.4375 319.234375 L 437.640625 319.234375 C 443.363281 319.234375 448 314.597656 448 308.875 C 448 303.152344 443.363281 298.515625 437.640625 298.515625 L 244.4375 298.515625 C 238.714844 298.515625 234.078125 303.152344 234.078125 308.875 C 234.078125 314.597656 238.714844 319.234375 244.4375 319.234375 Z M 244.4375 319.234375 " fill-opacity="1" fill-rule="nonzero"/><path fill="#7d2d91" d="M 244.4375 368.15625 L 437.640625 368.15625 C 443.363281 368.15625 448 363.519531 448 357.796875 C 448 352.074219 443.363281 347.4375 437.640625 347.4375 L 244.4375 347.4375 C 238.714844 347.4375 234.078125 352.074219 234.078125 357.796875 C 234.078125 363.519531 238.714844 368.15625 244.4375 368.15625 Z M 244.4375 368.15625 " fill-opacity="1" fill-rule="nonzero"/><path fill="#7d2d91" d="M 244.4375 417.085938 L 437.640625 417.085938 C 443.363281 417.085938 448 412.449219 448 406.726562 C 448 401.007812 443.363281 396.371094 437.640625 396.371094 L 244.4375 396.371094 C 238.714844 396.371094 234.078125 401.007812 234.078125 406.726562 C 234.078125 412.449219 238.714844 417.085938 244.4375 417.085938 Z M 244.4375 417.085938 " fill-opacity="1" fill-rule="nonzero"/><path fill="#7d2d91" d="M 437.640625 445.292969 L 385.738281 445.292969 C 380.015625 445.292969 375.382812 449.929688 375.382812 455.652344 C 375.382812 461.371094 380.015625 466.007812 385.738281 466.007812 L 437.640625 466.007812 C 443.363281 466.007812 448 461.371094 448 455.652344 C 448 449.929688 443.363281 445.292969 437.640625 445.292969 Z M 437.640625 445.292969 " fill-opacity="1" fill-rule="nonzero"/><g clip-path="url(#41584886b1)"><g clip-path="url(#aee32b2f68)"><g transform="matrix(1, 0, 0, 1, 109, 285)"><g clip-path="url(#faa5af7f19)"><g clip-path="url(#6a76bee090)"><g clip-path="url(#27b55f80ce)"><path fill="#ffc72c" d="M 0.828125 0.558594 L 431 0.558594 L 431 225.300781 L 0.828125 225.300781 Z M 0.828125 0.558594 " fill-opacity="1" fill-rule="nonzero"/></g></g></g></g></g></g></svg>